<svg id="Layer_1" data-name="Layer 1" xmlns="http://www.w3.org/2000/svg" viewBox="0 0 66.83 8.87"><defs><style>.cls-1{fill:#2e2e2e;}</style></defs><title>logo-black</title><path class="cls-1" d="M8.59,19.16v1.41H6.72v7.15H5V20.57H3.12V19.16Z" transform="translate(-3.12 -18.99)"/><path class="cls-1" d="M11,19.16v6a2.36,2.36,0,0,0,.21,1.1.84.84,0,0,0,.8.39.83.83,0,0,0,.79-.39,2.36,2.36,0,0,0,.21-1.1v-6H14.7v6A2.41,2.41,0,0,1,12,27.86a4.55,4.55,0,0,1-1-.11,2.45,2.45,0,0,1-.85-.37,1.84,1.84,0,0,1-.63-.84,3.87,3.87,0,0,1-.22-1.41v-6Z" transform="translate(-3.12 -18.99)"/><path class="cls-1" d="M17.46,19.16H19.6l2.27,8.56h-1.8l-.4-1.81H17.39L17,27.72h-1.8Zm.23,5.34h1.68l-.83-3.85h0Z" transform="translate(-3.12 -18.99)"/><path class="cls-1" d="M24.46,19.16,26.55,25h0V19.16h1.58v8.56h-2l-2.12-6h0v6H22.47V19.16Z" transform="translate(-3.12 -18.99)"/><path class="cls-1" d="M34.23,19.16,36.31,25h0V19.16h1.58v8.56H36l-2.11-6h0v6H32.23V19.16Z" transform="translate(-3.12 -18.99)"/><path class="cls-1" d="M42.93,21.7a2,2,0,0,0-.25-1,.79.79,0,0,0-.74-.45,1,1,0,0,0-.9.7,7,7,0,0,0-.27,2.3A9.81,9.81,0,0,0,41,25.8c.17.55.48.82.94.82a1,1,0,0,0,.72-.37,1.34,1.34,0,0,0,.35-1v-.87H41.88V23.1h2.8v4.62H43.41v-.79h0a2,2,0,0,1-1.8.93,2.9,2.9,0,0,1-1.08-.19,1.86,1.86,0,0,1-.73-.53,2.4,2.4,0,0,1-.45-.92A6.52,6.52,0,0,1,39.1,25c0-.45-.06-1-.06-1.63A6.53,6.53,0,0,1,39.68,20,2.41,2.41,0,0,1,41.92,19a2.68,2.68,0,0,1,2,.68,2.88,2.88,0,0,1,.64,2Z" transform="translate(-3.12 -18.99)"/><path class="cls-1" d="M47.41,19.16v6a2.35,2.35,0,0,0,.22,1.1.82.82,0,0,0,.79.39.81.81,0,0,0,.79-.39,2.23,2.23,0,0,0,.22-1.1v-6h1.73v6a2.42,2.42,0,0,1-2.74,2.73,4.52,4.52,0,0,1-1-.11,2.37,2.37,0,0,1-.85-.37,1.84,1.84,0,0,1-.63-.84,3.87,3.87,0,0,1-.22-1.41v-6Z" transform="translate(-3.12 -18.99)"/><path class="cls-1" d="M53.63,19.16l1.13,3.31h0L56,19.16h1.87l-2.22,5.19v3.37H53.91V24.35l-2.22-5.19Z" transform="translate(-3.12 -18.99)"/><path class="cls-1" d="M63.28,19.16v1.41H60.22v2H63.1V24H60.22v2.31H63.4v1.41H58.49V19.16Z" transform="translate(-3.12 -18.99)"/><path class="cls-1" d="M66.25,19.16,68.34,25h0V19.16H70v8.56H68l-2.11-6h0v6H64.26V19.16Z" transform="translate(-3.12 -18.99)"/></svg>